<svg xmlns="http://www.w3.org/2000/svg" width="34.001" height="22.002" viewBox="104.999 3.999 34.001 22.002"><path d="m123.113 6.878-2.934 2.88a5.633 5.633 0 0 0-3.561-1.608 8.052 8.052 0 0 0-.791-.038c-1.82 0-3.44.72-4.756 2.057a7.853 7.853 0 0 0-1.59 2.525 6.775 6.775 0 0 0-.434 2.408 6.804 6.804 0 0 0 2.024 4.935c1.316 1.337 2.935 2.057 4.756 2.057a6.982 6.982 0 0 0 4.048-1.234c1.214-.925 1.923-2.056 2.125-3.496h-6.173v-3.803h10.22a22.752 22.752 0 0 1 .14.925 7.589 7.589 0 0 1 .063.925 13.064 13.064 0 0 1-.395 3.32 8.637 8.637 0 0 1-2.54 4.288c-1.922 1.953-4.35 2.98-7.488 2.98a10.724 10.724 0 0 1-4.54-.937 10.646 10.646 0 0 1-3.15-2.25 10.553 10.553 0 0 1-3.128-7.31A13.695 13.695 0 0 1 105 15a11.292 11.292 0 0 1 .82-4.375 10.745 10.745 0 0 1 2.317-3.438 10.225 10.225 0 0 1 7.092-3.173 12.977 12.977 0 0 1 .598-.014 10.401 10.401 0 0 1 4.893 1.137 10.322 10.322 0 0 1 2.393 1.741Zm9.714 13.057v-3.187h-3.136V13.56h3.136v-3.187h3.138v3.187H139v3.187h-3.035v3.187h-3.138Z" fill="#323642" fill-rule="evenodd" data-name="Shape"/></svg>