<svg width="134" height="18" viewBox="0 0 134 18" fill="none" xmlns="http://www.w3.org/2000/svg">
<path d="M11.2853 5H9.70011C9.60636 4.54403 9.44229 4.14347 9.20792 3.7983C8.97781 3.45312 8.69656 3.16335 8.36417 2.92898C8.03604 2.69034 7.6717 2.51136 7.27113 2.39205C6.87056 2.27273 6.45295 2.21307 6.01829 2.21307C5.22567 2.21307 4.50764 2.41335 3.86417 2.81392C3.22496 3.21449 2.71573 3.80469 2.33647 4.58452C1.96147 5.36435 1.77397 6.32102 1.77397 7.45455C1.77397 8.58807 1.96147 9.54474 2.33647 10.3246C2.71573 11.1044 3.22496 11.6946 3.86417 12.0952C4.50764 12.4957 5.22567 12.696 6.01829 12.696C6.45295 12.696 6.87056 12.6364 7.27113 12.517C7.6717 12.3977 8.03604 12.2209 8.36417 11.9865C8.69656 11.7479 8.97781 11.456 9.20792 11.1108C9.44229 10.7614 9.60636 10.3608 9.70011 9.90909H11.2853C11.166 10.5781 10.9487 11.1768 10.6333 11.7053C10.318 12.2337 9.92596 12.6832 9.45721 13.054C8.98846 13.4205 8.46218 13.6996 7.87837 13.8913C7.29883 14.0831 6.6788 14.179 6.01829 14.179C4.90181 14.179 3.90891 13.9062 3.0396 13.3608C2.17028 12.8153 1.48633 12.0398 0.987749 11.0341C0.489169 10.0284 0.239879 8.83523 0.239879 7.45455C0.239879 6.07386 0.489169 4.88068 0.987749 3.875C1.48633 2.86932 2.17028 2.09375 3.0396 1.5483C3.90891 1.00284 4.90181 0.730113 6.01829 0.730113C6.6788 0.730113 7.29883 0.825994 7.87837 1.01776C8.46218 1.20952 8.98846 1.49077 9.45721 1.86151C9.92596 2.22798 10.318 2.67543 10.6333 3.20384C10.9487 3.72798 11.166 4.3267 11.2853 5ZM17.631 14.2045C16.7447 14.2045 15.967 13.9936 15.2979 13.5717C14.6332 13.1499 14.1133 12.5597 13.7383 11.8011C13.3675 11.0426 13.1822 10.1562 13.1822 9.14205C13.1822 8.11932 13.3675 7.22656 13.7383 6.46378C14.1133 5.70099 14.6332 5.10866 15.2979 4.68679C15.967 4.26491 16.7447 4.05398 17.631 4.05398C18.5174 4.05398 19.293 4.26491 19.9577 4.68679C20.6268 5.10866 21.1467 5.70099 21.5174 6.46378C21.8924 7.22656 22.0799 8.11932 22.0799 9.14205C22.0799 10.1562 21.8924 11.0426 21.5174 11.8011C21.1467 12.5597 20.6268 13.1499 19.9577 13.5717C19.293 13.9936 18.5174 14.2045 17.631 14.2045ZM17.631 12.8494C18.3043 12.8494 18.8583 12.6768 19.293 12.3317C19.7276 11.9865 20.0494 11.5327 20.2582 10.9702C20.467 10.4077 20.5714 9.7983 20.5714 9.14205C20.5714 8.4858 20.467 7.87429 20.2582 7.30753C20.0494 6.74077 19.7276 6.28267 19.293 5.93324C18.8583 5.58381 18.3043 5.40909 17.631 5.40909C16.9577 5.40909 16.4038 5.58381 15.9691 5.93324C15.5344 6.28267 15.2127 6.74077 15.0039 7.30753C14.7951 7.87429 14.6907 8.4858 14.6907 9.14205C14.6907 9.7983 14.7951 10.4077 15.0039 10.9702C15.2127 11.5327 15.5344 11.9865 15.9691 12.3317C16.4038 12.6768 16.9577 12.8494 17.631 12.8494ZM24.3826 14V4.18182H25.84V5.71591H25.9679C26.1724 5.19176 26.5027 4.7848 26.9586 4.49503C27.4146 4.20099 27.9622 4.05398 28.6014 4.05398C29.2491 4.05398 29.7882 4.20099 30.2186 4.49503C30.6532 4.7848 30.992 5.19176 31.2349 5.71591H31.3372C31.5886 5.20881 31.9657 4.80611 32.4686 4.50781C32.9714 4.20526 33.5744 4.05398 34.2775 4.05398C35.1554 4.05398 35.8734 4.32884 36.4316 4.87855C36.9899 5.42401 37.269 6.27415 37.269 7.42898V14H35.7605V7.42898C35.7605 6.70455 35.5623 6.18679 35.166 5.87571C34.7697 5.56463 34.3031 5.40909 33.7662 5.40909C33.0758 5.40909 32.541 5.6179 32.1618 6.03551C31.7825 6.44886 31.5929 6.97301 31.5929 7.60795V14H30.0588V7.27557C30.0588 6.71733 29.8777 6.26776 29.5154 5.92685C29.1532 5.58168 28.6866 5.40909 28.1156 5.40909C27.7235 5.40909 27.3571 5.51349 27.0162 5.7223C26.6795 5.93111 26.4068 6.22088 26.198 6.59162C25.9934 6.9581 25.8912 7.3821 25.8912 7.86364V14H24.3826ZM40.0272 17.6818V4.18182H41.4846V5.74148H41.6635C41.7743 5.57102 41.9277 5.35369 42.1238 5.08949C42.324 4.82102 42.6096 4.58239 42.9803 4.37358C43.3553 4.16051 43.8624 4.05398 44.5016 4.05398C45.3283 4.05398 46.057 4.26065 46.6877 4.67401C47.3184 5.08736 47.8105 5.6733 48.1642 6.43182C48.5179 7.19034 48.6948 8.08523 48.6948 9.11648C48.6948 10.1562 48.5179 11.0575 48.1642 11.8203C47.8105 12.5788 47.3205 13.1669 46.6941 13.5845C46.0676 13.9979 45.3453 14.2045 44.5272 14.2045C43.8965 14.2045 43.3915 14.1001 43.0123 13.8913C42.633 13.6783 42.3411 13.4375 42.1365 13.169C41.932 12.8963 41.7743 12.6705 41.6635 12.4915H41.5357V17.6818H40.0272ZM41.5101 9.09091C41.5101 9.83239 41.6188 10.4865 41.8361 11.0533C42.0534 11.6158 42.3709 12.0568 42.7885 12.3764C43.2061 12.6918 43.7175 12.8494 44.3226 12.8494C44.9533 12.8494 45.4796 12.6832 45.9015 12.3509C46.3276 12.0142 46.6472 11.5625 46.8603 10.9957C47.0776 10.4247 47.1863 9.78977 47.1863 9.09091C47.1863 8.40057 47.0797 7.77841 46.8667 7.22443C46.6578 6.66619 46.3404 6.22514 45.9142 5.90128C45.4924 5.57315 44.9618 5.40909 44.3226 5.40909C43.709 5.40909 43.1934 5.56463 42.7757 5.87571C42.3581 6.18253 42.0428 6.61293 41.8297 7.1669C41.6167 7.71662 41.5101 8.35795 41.5101 9.09091ZM53.8851 14.2301C53.263 14.2301 52.6983 14.1129 52.1912 13.8786C51.6841 13.6399 51.2814 13.2969 50.9831 12.8494C50.6848 12.3977 50.5357 11.8523 50.5357 11.2131C50.5357 10.6506 50.6465 10.1946 50.8681 9.84517C51.0897 9.49148 51.3858 9.21449 51.7566 9.0142C52.1273 8.81392 52.5364 8.66477 52.9838 8.56676C53.4355 8.46449 53.8894 8.38352 54.3453 8.32386C54.9419 8.24716 55.4256 8.18963 55.7963 8.15128C56.1713 8.10866 56.4441 8.03835 56.6145 7.94034C56.7892 7.84233 56.8766 7.67187 56.8766 7.42898V7.37784C56.8766 6.74716 56.704 6.2571 56.3588 5.90767C56.0179 5.55824 55.5002 5.38352 54.8056 5.38352C54.0854 5.38352 53.5208 5.54119 53.1117 5.85653C52.7026 6.17187 52.415 6.50852 52.2488 6.86648L50.8169 6.35511C51.0726 5.75852 51.4135 5.29403 51.8397 4.96165C52.2701 4.625 52.7388 4.39062 53.2459 4.25852C53.7573 4.12216 54.2601 4.05398 54.7544 4.05398C55.0698 4.05398 55.432 4.09233 55.8411 4.16903C56.2544 4.24148 56.6529 4.39276 57.0364 4.62287C57.4242 4.85298 57.7459 5.20028 58.0016 5.66477C58.2573 6.12926 58.3851 6.75142 58.3851 7.53125V14H56.8766V12.6705H56.7999C56.6976 12.8835 56.5272 13.1115 56.2885 13.3544C56.0499 13.5973 55.7324 13.804 55.3361 13.9744C54.9398 14.1449 54.4561 14.2301 53.8851 14.2301ZM54.1152 12.875C54.7118 12.875 55.2147 12.7578 55.6238 12.5234C56.0371 12.2891 56.3482 11.9865 56.557 11.6158C56.7701 11.245 56.8766 10.8551 56.8766 10.446V9.06534C56.8127 9.14205 56.6721 9.21236 56.4547 9.27628C56.2417 9.33594 55.9945 9.3892 55.7132 9.43608C55.4363 9.47869 55.1657 9.51705 54.9015 9.55114C54.6415 9.58097 54.4306 9.60653 54.2686 9.62784C53.8766 9.67898 53.5101 9.76207 53.1692 9.87713C52.8326 9.98793 52.5598 10.1562 52.351 10.3821C52.1465 10.6037 52.0442 10.9062 52.0442 11.2898C52.0442 11.8139 52.2381 12.2102 52.6259 12.4787C53.0179 12.7429 53.5144 12.875 54.1152 12.875ZM62.647 8.09375V14H61.1385V4.18182H62.5959V5.71591H62.7237C62.9538 5.21733 63.3033 4.81676 63.772 4.5142C64.2408 4.20739 64.8459 4.05398 65.5874 4.05398C66.2521 4.05398 66.8338 4.19034 67.3324 4.46307C67.831 4.73153 68.2188 5.14062 68.4957 5.69034C68.7727 6.2358 68.9112 6.92614 68.9112 7.76136V14H67.4027V7.86364C67.4027 7.09233 67.2024 6.49148 66.8018 6.06108C66.4013 5.62642 65.8516 5.40909 65.1527 5.40909C64.6712 5.40909 64.2408 5.51349 63.8615 5.7223C63.4865 5.93111 63.1903 6.2358 62.973 6.63636C62.7557 7.03693 62.647 7.52273 62.647 8.09375ZM72.2878 17.6818C72.0321 17.6818 71.8042 17.6605 71.6039 17.6179C71.4036 17.5795 71.2651 17.5412 71.1884 17.5028L71.5719 16.1733C71.9384 16.267 72.2623 16.3011 72.5435 16.2756C72.8248 16.25 73.074 16.1243 73.2914 15.8984C73.513 15.6768 73.7154 15.3168 73.8986 14.8182L74.1799 14.0511L70.5492 4.18182H72.1855L74.8958 12.0057H74.998L77.7083 4.18182H79.3446L75.177 15.4318C74.9895 15.9389 74.7573 16.3587 74.4803 16.6911C74.2033 17.0277 73.8816 17.277 73.5151 17.4389C73.1529 17.6009 72.7438 17.6818 72.2878 17.6818ZM96.9835 0.909091V14H95.4494L88.3159 3.72159H88.188V14H86.6028V0.909091H88.1369L95.296 11.2131H95.4238V0.909091H96.9835ZM102.84 14.2301C102.218 14.2301 101.653 14.1129 101.146 13.8786C100.639 13.6399 100.237 13.2969 99.9382 12.8494C99.6399 12.3977 99.4908 11.8523 99.4908 11.2131C99.4908 10.6506 99.6016 10.1946 99.8232 9.84517C100.045 9.49148 100.341 9.21449 100.712 9.0142C101.082 8.81392 101.491 8.66477 101.939 8.56676C102.391 8.46449 102.844 8.38352 103.3 8.32386C103.897 8.24716 104.381 8.18963 104.751 8.15128C105.126 8.10866 105.399 8.03835 105.57 7.94034C105.744 7.84233 105.832 7.67187 105.832 7.42898V7.37784C105.832 6.74716 105.659 6.2571 105.314 5.90767C104.973 5.55824 104.455 5.38352 103.761 5.38352C103.04 5.38352 102.476 5.54119 102.067 5.85653C101.658 6.17187 101.37 6.50852 101.204 6.86648L99.772 6.35511C100.028 5.75852 100.369 5.29403 100.795 4.96165C101.225 4.625 101.694 4.39062 102.201 4.25852C102.712 4.12216 103.215 4.05398 103.71 4.05398C104.025 4.05398 104.387 4.09233 104.796 4.16903C105.21 4.24148 105.608 4.39276 105.991 4.62287C106.379 4.85298 106.701 5.20028 106.957 5.66477C107.212 6.12926 107.34 6.75142 107.34 7.53125V14H105.832V12.6705H105.755C105.653 12.8835 105.482 13.1115 105.244 13.3544C105.005 13.5973 104.688 13.804 104.291 13.9744C103.895 14.1449 103.411 14.2301 102.84 14.2301ZM103.07 12.875C103.667 12.875 104.17 12.7578 104.579 12.5234C104.992 12.2891 105.303 11.9865 105.512 11.6158C105.725 11.245 105.832 10.8551 105.832 10.446V9.06534C105.768 9.14205 105.627 9.21236 105.41 9.27628C105.197 9.33594 104.95 9.3892 104.668 9.43608C104.391 9.47869 104.121 9.51705 103.857 9.55114C103.597 9.58097 103.386 9.60653 103.224 9.62784C102.832 9.67898 102.465 9.76207 102.124 9.87713C101.788 9.98793 101.515 10.1562 101.306 10.3821C101.102 10.6037 100.999 10.9062 100.999 11.2898C100.999 11.8139 101.193 12.2102 101.581 12.4787C101.973 12.7429 102.469 12.875 103.07 12.875ZM110.094 14V4.18182H111.551V5.71591H111.679C111.883 5.19176 112.214 4.7848 112.67 4.49503C113.126 4.20099 113.673 4.05398 114.312 4.05398C114.96 4.05398 115.499 4.20099 115.93 4.49503C116.364 4.7848 116.703 5.19176 116.946 5.71591H117.048C117.3 5.20881 117.677 4.80611 118.18 4.50781C118.682 4.20526 119.285 4.05398 119.988 4.05398C120.866 4.05398 121.584 4.32884 122.143 4.87855C122.701 5.42401 122.98 6.27415 122.98 7.42898V14H121.471V7.42898C121.471 6.70455 121.273 6.18679 120.877 5.87571C120.481 5.56463 120.014 5.40909 119.477 5.40909C118.787 5.40909 118.252 5.6179 117.873 6.03551C117.493 6.44886 117.304 6.97301 117.304 7.60795V14H115.77V7.27557C115.77 6.71733 115.589 6.26776 115.226 5.92685C114.864 5.58168 114.398 5.40909 113.827 5.40909C113.434 5.40909 113.068 5.51349 112.727 5.7223C112.39 5.93111 112.118 6.22088 111.909 6.59162C111.704 6.9581 111.602 7.3821 111.602 7.86364V14H110.094ZM129.855 14.2045C128.909 14.2045 128.093 13.9957 127.406 13.5781C126.725 13.1562 126.198 12.5682 125.828 11.8139C125.461 11.0554 125.278 10.1733 125.278 9.16761C125.278 8.16193 125.461 7.27557 125.828 6.50852C126.198 5.73722 126.714 5.13636 127.374 4.70597C128.039 4.27131 128.815 4.05398 129.701 4.05398C130.213 4.05398 130.718 4.1392 131.216 4.30966C131.715 4.48011 132.169 4.7571 132.578 5.14062C132.987 5.51989 133.313 6.02273 133.556 6.64915C133.798 7.27557 133.92 8.04687 133.92 8.96307V9.60227H126.352V8.2983H132.386C132.386 7.74432 132.275 7.25 132.053 6.81534C131.836 6.38068 131.525 6.03764 131.12 5.78622C130.72 5.5348 130.247 5.40909 129.701 5.40909C129.1 5.40909 128.58 5.55824 128.142 5.85653C127.707 6.15057 127.372 6.53409 127.138 7.0071C126.904 7.48011 126.786 7.98722 126.786 8.52841V9.39773C126.786 10.1392 126.914 10.7678 127.17 11.2834C127.43 11.7947 127.79 12.1847 128.25 12.4531C128.71 12.7173 129.245 12.8494 129.855 12.8494C130.251 12.8494 130.609 12.794 130.928 12.6832C131.252 12.5682 131.531 12.3977 131.766 12.1719C132 11.9418 132.181 11.6562 132.309 11.3153L133.767 11.7244C133.613 12.2188 133.355 12.6534 132.993 13.0284C132.631 13.3991 132.183 13.6889 131.651 13.8977C131.118 14.1023 130.519 14.2045 129.855 14.2045Z" fill="black"/>
</svg>
