<svg xmlns="http://www.w3.org/2000/svg" width="28" height="23" viewBox="45 4 28 23"><path d="M46.127 12.086v.073c0 2.813 1.98 5.16 4.607 5.695a5.757 5.757 0 0 1-1.514.204 5.454 5.454 0 0 1-1.081-.108c.731 2.309 2.852 3.988 5.364 4.034a11.439 11.439 0 0 1-6.506 2.465 11.67 11.67 0 0 1-.627.017 12.073 12.073 0 0 1-1.37-.08 16.107 16.107 0 0 0 8.124 2.6 16.327 16.327 0 0 0 .68.014c10.567 0 16.342-8.85 16.342-16.526l-.019-.752a11.542 11.542 0 0 0 2.873-3 11.371 11.371 0 0 1-3.298.914 5.822 5.822 0 0 0 2.525-3.211 11.502 11.502 0 0 1-3.65 1.41 5.7 5.7 0 0 0-3.884-1.827A5.79 5.79 0 0 0 64.385 4a5.777 5.777 0 0 0-5.745 5.807 5.887 5.887 0 0 0 .15 1.324 16.248 16.248 0 0 1-11.84-6.07 5.796 5.796 0 0 0-.763 2.524 5.994 5.994 0 0 0-.013.396 5.832 5.832 0 0 0 1.253 3.624 5.786 5.786 0 0 0 1.302 1.21 5.693 5.693 0 0 1-2.493-.669 5.773 5.773 0 0 1-.11-.06Z" fill="#323642" fill-rule="evenodd" data-name="Shape"/></svg>